<mxfile host="app.diagrams.net" modified="2023-10-10T18:06:55.185Z" agent="Mozilla/5.0 (Windows NT 10.0; Win64; x64) AppleWebKit/537.36 (KHTML, like Gecko) Chrome/117.0.0.0 Safari/537.36" etag="1lhZnuRFW-oEa7Z75YVU" version="22.0.4" type="device">
  <diagram id="C5RBs43oDa-KdzZeNtuy" name="Page-1">
    <mxGraphModel dx="1723" dy="753" grid="1" gridSize="10" guides="1" tooltips="1" connect="1" arrows="1" fold="1" page="1" pageScale="1" pageWidth="827" pageHeight="1169" math="0" shadow="0">
      <root>
        <mxCell id="WIyWlLk6GJQsqaUBKTNV-0" />
        <mxCell id="WIyWlLk6GJQsqaUBKTNV-1" parent="WIyWlLk6GJQsqaUBKTNV-0" />
        <mxCell id="gm-yubCqo1Sg5wJiPhqE-2" value="" style="edgeStyle=orthogonalEdgeStyle;rounded=0;orthogonalLoop=1;jettySize=auto;html=1;" parent="WIyWlLk6GJQsqaUBKTNV-1" source="gm-yubCqo1Sg5wJiPhqE-0" target="gm-yubCqo1Sg5wJiPhqE-1" edge="1">
          <mxGeometry relative="1" as="geometry" />
        </mxCell>
        <mxCell id="gm-yubCqo1Sg5wJiPhqE-0" value="Inicio" style="strokeWidth=2;html=1;shape=mxgraph.flowchart.terminator;whiteSpace=wrap;" parent="WIyWlLk6GJQsqaUBKTNV-1" vertex="1">
          <mxGeometry x="160" y="20" width="140" height="60" as="geometry" />
        </mxCell>
        <mxCell id="gm-yubCqo1Sg5wJiPhqE-4" style="edgeStyle=orthogonalEdgeStyle;rounded=0;orthogonalLoop=1;jettySize=auto;html=1;" parent="WIyWlLk6GJQsqaUBKTNV-1" source="gm-yubCqo1Sg5wJiPhqE-1" target="gm-yubCqo1Sg5wJiPhqE-3" edge="1">
          <mxGeometry relative="1" as="geometry" />
        </mxCell>
        <mxCell id="gm-yubCqo1Sg5wJiPhqE-1" value="Entero Numero1" style="rounded=0;whiteSpace=wrap;html=1;" parent="WIyWlLk6GJQsqaUBKTNV-1" vertex="1">
          <mxGeometry x="170" y="100" width="120" height="60" as="geometry" />
        </mxCell>
        <mxCell id="gm-yubCqo1Sg5wJiPhqE-11" style="edgeStyle=orthogonalEdgeStyle;rounded=0;orthogonalLoop=1;jettySize=auto;html=1;" parent="WIyWlLk6GJQsqaUBKTNV-1" source="gm-yubCqo1Sg5wJiPhqE-3" target="gm-yubCqo1Sg5wJiPhqE-5" edge="1">
          <mxGeometry relative="1" as="geometry" />
        </mxCell>
        <mxCell id="gm-yubCqo1Sg5wJiPhqE-3" value="Entero Numero2" style="rounded=0;whiteSpace=wrap;html=1;" parent="WIyWlLk6GJQsqaUBKTNV-1" vertex="1">
          <mxGeometry x="170" y="180" width="120" height="60" as="geometry" />
        </mxCell>
        <mxCell id="gm-yubCqo1Sg5wJiPhqE-12" style="edgeStyle=orthogonalEdgeStyle;rounded=0;orthogonalLoop=1;jettySize=auto;html=1;" parent="WIyWlLk6GJQsqaUBKTNV-1" source="gm-yubCqo1Sg5wJiPhqE-5" target="gm-yubCqo1Sg5wJiPhqE-6" edge="1">
          <mxGeometry relative="1" as="geometry" />
        </mxCell>
        <mxCell id="gm-yubCqo1Sg5wJiPhqE-5" value="Entero Numero3" style="whiteSpace=wrap;html=1;" parent="WIyWlLk6GJQsqaUBKTNV-1" vertex="1">
          <mxGeometry x="170" y="260" width="120" height="60" as="geometry" />
        </mxCell>
        <mxCell id="gm-yubCqo1Sg5wJiPhqE-13" style="edgeStyle=orthogonalEdgeStyle;rounded=0;orthogonalLoop=1;jettySize=auto;html=1;" parent="WIyWlLk6GJQsqaUBKTNV-1" source="gm-yubCqo1Sg5wJiPhqE-6" target="gm-yubCqo1Sg5wJiPhqE-10" edge="1">
          <mxGeometry relative="1" as="geometry" />
        </mxCell>
        <mxCell id="gm-yubCqo1Sg5wJiPhqE-6" value="Imprimir (&quot;Dime el número 1&quot;)" style="shape=parallelogram;perimeter=parallelogramPerimeter;whiteSpace=wrap;html=1;fixedSize=1;" parent="WIyWlLk6GJQsqaUBKTNV-1" vertex="1">
          <mxGeometry x="110" y="340" width="240" height="60" as="geometry" />
        </mxCell>
        <mxCell id="gm-yubCqo1Sg5wJiPhqE-16" style="edgeStyle=orthogonalEdgeStyle;rounded=0;orthogonalLoop=1;jettySize=auto;html=1;" parent="WIyWlLk6GJQsqaUBKTNV-1" source="gm-yubCqo1Sg5wJiPhqE-8" target="gm-yubCqo1Sg5wJiPhqE-15" edge="1">
          <mxGeometry relative="1" as="geometry" />
        </mxCell>
        <mxCell id="gm-yubCqo1Sg5wJiPhqE-8" value="Imprimir (&quot;Dime el número 2&quot;)" style="shape=parallelogram;perimeter=parallelogramPerimeter;whiteSpace=wrap;html=1;fixedSize=1;" parent="WIyWlLk6GJQsqaUBKTNV-1" vertex="1">
          <mxGeometry x="90" y="510" width="265" height="60" as="geometry" />
        </mxCell>
        <mxCell id="ArU2y2GqYF4odjyeMt7Y-12" style="edgeStyle=orthogonalEdgeStyle;rounded=0;orthogonalLoop=1;jettySize=auto;html=1;" edge="1" parent="WIyWlLk6GJQsqaUBKTNV-1" source="gm-yubCqo1Sg5wJiPhqE-10" target="gm-yubCqo1Sg5wJiPhqE-8">
          <mxGeometry relative="1" as="geometry" />
        </mxCell>
        <mxCell id="gm-yubCqo1Sg5wJiPhqE-10" value="Leer (numero 1)" style="shape=parallelogram;perimeter=parallelogramPerimeter;whiteSpace=wrap;html=1;fixedSize=1;" parent="WIyWlLk6GJQsqaUBKTNV-1" vertex="1">
          <mxGeometry x="170" y="420" width="120" height="60" as="geometry" />
        </mxCell>
        <mxCell id="ArU2y2GqYF4odjyeMt7Y-3" style="edgeStyle=orthogonalEdgeStyle;rounded=0;orthogonalLoop=1;jettySize=auto;html=1;" edge="1" parent="WIyWlLk6GJQsqaUBKTNV-1" source="gm-yubCqo1Sg5wJiPhqE-15" target="ArU2y2GqYF4odjyeMt7Y-0">
          <mxGeometry relative="1" as="geometry" />
        </mxCell>
        <mxCell id="gm-yubCqo1Sg5wJiPhqE-15" value="Leer (numero 2)" style="shape=parallelogram;perimeter=parallelogramPerimeter;whiteSpace=wrap;html=1;fixedSize=1;" parent="WIyWlLk6GJQsqaUBKTNV-1" vertex="1">
          <mxGeometry x="150" y="600" width="120" height="60" as="geometry" />
        </mxCell>
        <mxCell id="ArU2y2GqYF4odjyeMt7Y-0" value="Imprimir (&quot;Dime el número 3&quot;)" style="shape=parallelogram;perimeter=parallelogramPerimeter;whiteSpace=wrap;html=1;fixedSize=1;" vertex="1" parent="WIyWlLk6GJQsqaUBKTNV-1">
          <mxGeometry x="90" y="680" width="240" height="60" as="geometry" />
        </mxCell>
        <mxCell id="ArU2y2GqYF4odjyeMt7Y-1" value="Leer (numero 3)" style="shape=parallelogram;perimeter=parallelogramPerimeter;whiteSpace=wrap;html=1;fixedSize=1;" vertex="1" parent="WIyWlLk6GJQsqaUBKTNV-1">
          <mxGeometry x="140" y="770" width="130" height="60" as="geometry" />
        </mxCell>
        <mxCell id="ArU2y2GqYF4odjyeMt7Y-2" style="edgeStyle=orthogonalEdgeStyle;rounded=0;orthogonalLoop=1;jettySize=auto;html=1;entryX=0.558;entryY=0;entryDx=0;entryDy=0;entryPerimeter=0;" edge="1" parent="WIyWlLk6GJQsqaUBKTNV-1" source="ArU2y2GqYF4odjyeMt7Y-0" target="ArU2y2GqYF4odjyeMt7Y-1">
          <mxGeometry relative="1" as="geometry" />
        </mxCell>
        <mxCell id="ArU2y2GqYF4odjyeMt7Y-8" style="edgeStyle=orthogonalEdgeStyle;rounded=0;orthogonalLoop=1;jettySize=auto;html=1;" edge="1" parent="WIyWlLk6GJQsqaUBKTNV-1" source="ArU2y2GqYF4odjyeMt7Y-4" target="ArU2y2GqYF4odjyeMt7Y-6">
          <mxGeometry relative="1" as="geometry" />
        </mxCell>
        <mxCell id="ArU2y2GqYF4odjyeMt7Y-9" style="edgeStyle=orthogonalEdgeStyle;rounded=0;orthogonalLoop=1;jettySize=auto;html=1;entryX=0.5;entryY=0;entryDx=0;entryDy=0;" edge="1" parent="WIyWlLk6GJQsqaUBKTNV-1" source="ArU2y2GqYF4odjyeMt7Y-4" target="ArU2y2GqYF4odjyeMt7Y-7">
          <mxGeometry relative="1" as="geometry" />
        </mxCell>
        <mxCell id="ArU2y2GqYF4odjyeMt7Y-4" value="numero1&lt;br&gt;&amp;gt;&lt;br&gt;numero2" style="rhombus;whiteSpace=wrap;html=1;" vertex="1" parent="WIyWlLk6GJQsqaUBKTNV-1">
          <mxGeometry x="150" y="860" width="100" height="100" as="geometry" />
        </mxCell>
        <mxCell id="ArU2y2GqYF4odjyeMt7Y-5" style="edgeStyle=orthogonalEdgeStyle;rounded=0;orthogonalLoop=1;jettySize=auto;html=1;entryX=0.48;entryY=0.07;entryDx=0;entryDy=0;entryPerimeter=0;" edge="1" parent="WIyWlLk6GJQsqaUBKTNV-1" source="ArU2y2GqYF4odjyeMt7Y-1" target="ArU2y2GqYF4odjyeMt7Y-4">
          <mxGeometry relative="1" as="geometry" />
        </mxCell>
        <mxCell id="ArU2y2GqYF4odjyeMt7Y-21" style="edgeStyle=orthogonalEdgeStyle;rounded=0;orthogonalLoop=1;jettySize=auto;html=1;" edge="1" parent="WIyWlLk6GJQsqaUBKTNV-1" source="ArU2y2GqYF4odjyeMt7Y-6">
          <mxGeometry relative="1" as="geometry">
            <mxPoint x="390" y="1090" as="targetPoint" />
          </mxGeometry>
        </mxCell>
        <mxCell id="ArU2y2GqYF4odjyeMt7Y-6" value="numero2&lt;br style=&quot;border-color: var(--border-color);&quot;&gt;&amp;gt;&lt;br style=&quot;border-color: var(--border-color);&quot;&gt;numero3" style="rhombus;whiteSpace=wrap;html=1;" vertex="1" parent="WIyWlLk6GJQsqaUBKTNV-1">
          <mxGeometry x="270" y="970" width="100" height="80" as="geometry" />
        </mxCell>
        <mxCell id="ArU2y2GqYF4odjyeMt7Y-17" style="edgeStyle=orthogonalEdgeStyle;rounded=0;orthogonalLoop=1;jettySize=auto;html=1;" edge="1" parent="WIyWlLk6GJQsqaUBKTNV-1" source="ArU2y2GqYF4odjyeMt7Y-7">
          <mxGeometry relative="1" as="geometry">
            <mxPoint x="-40" y="1090" as="targetPoint" />
          </mxGeometry>
        </mxCell>
        <mxCell id="ArU2y2GqYF4odjyeMt7Y-20" style="edgeStyle=orthogonalEdgeStyle;rounded=0;orthogonalLoop=1;jettySize=auto;html=1;" edge="1" parent="WIyWlLk6GJQsqaUBKTNV-1" source="ArU2y2GqYF4odjyeMt7Y-7">
          <mxGeometry relative="1" as="geometry">
            <mxPoint x="190" y="1090" as="targetPoint" />
          </mxGeometry>
        </mxCell>
        <mxCell id="ArU2y2GqYF4odjyeMt7Y-7" value="numero1&lt;br style=&quot;border-color: var(--border-color);&quot;&gt;&amp;gt;&lt;br style=&quot;border-color: var(--border-color);&quot;&gt;numero3" style="rhombus;whiteSpace=wrap;html=1;" vertex="1" parent="WIyWlLk6GJQsqaUBKTNV-1">
          <mxGeometry x="35" y="970" width="110" height="80" as="geometry" />
        </mxCell>
        <mxCell id="ArU2y2GqYF4odjyeMt7Y-10" value="True" style="text;html=1;align=center;verticalAlign=middle;resizable=0;points=[];autosize=1;strokeColor=none;fillColor=none;" vertex="1" parent="WIyWlLk6GJQsqaUBKTNV-1">
          <mxGeometry x="80" y="920" width="50" height="30" as="geometry" />
        </mxCell>
        <mxCell id="ArU2y2GqYF4odjyeMt7Y-11" value="False" style="text;html=1;align=center;verticalAlign=middle;resizable=0;points=[];autosize=1;strokeColor=none;fillColor=none;" vertex="1" parent="WIyWlLk6GJQsqaUBKTNV-1">
          <mxGeometry x="270" y="920" width="50" height="30" as="geometry" />
        </mxCell>
        <mxCell id="ArU2y2GqYF4odjyeMt7Y-13" value="Imprimir (&quot;El mayor es: &quot;&lt;br&gt;+numero1)" style="shape=parallelogram;perimeter=parallelogramPerimeter;whiteSpace=wrap;html=1;fixedSize=1;" vertex="1" parent="WIyWlLk6GJQsqaUBKTNV-1">
          <mxGeometry x="-140" y="1100" width="180" height="60" as="geometry" />
        </mxCell>
        <mxCell id="ArU2y2GqYF4odjyeMt7Y-18" value="&lt;br&gt;&lt;span style=&quot;color: rgb(0, 0, 0); font-family: Helvetica; font-size: 12px; font-style: normal; font-variant-ligatures: normal; font-variant-caps: normal; font-weight: 400; letter-spacing: normal; orphans: 2; text-align: center; text-indent: 0px; text-transform: none; widows: 2; word-spacing: 0px; -webkit-text-stroke-width: 0px; background-color: rgb(251, 251, 251); text-decoration-thickness: initial; text-decoration-style: initial; text-decoration-color: initial; float: none; display: inline !important;&quot;&gt;Imprimir (&quot;El mayor es:&amp;nbsp;&quot;&lt;br&gt;+numero2)&lt;/span&gt;" style="shape=parallelogram;perimeter=parallelogramPerimeter;whiteSpace=wrap;html=1;fixedSize=1;" vertex="1" parent="WIyWlLk6GJQsqaUBKTNV-1">
          <mxGeometry x="260" y="1100" width="210" height="60" as="geometry" />
        </mxCell>
        <mxCell id="ArU2y2GqYF4odjyeMt7Y-19" value="&lt;br&gt;&lt;span style=&quot;color: rgb(0, 0, 0); font-family: Helvetica; font-size: 12px; font-style: normal; font-variant-ligatures: normal; font-variant-caps: normal; font-weight: 400; letter-spacing: normal; orphans: 2; text-align: center; text-indent: 0px; text-transform: none; widows: 2; word-spacing: 0px; -webkit-text-stroke-width: 0px; background-color: rgb(251, 251, 251); text-decoration-thickness: initial; text-decoration-style: initial; text-decoration-color: initial; float: none; display: inline !important;&quot;&gt;Imprimir (&quot;El mayor es:&quot;&lt;br&gt;+numero3)&lt;/span&gt;" style="shape=parallelogram;perimeter=parallelogramPerimeter;whiteSpace=wrap;html=1;fixedSize=1;" vertex="1" parent="WIyWlLk6GJQsqaUBKTNV-1">
          <mxGeometry x="50" y="1100" width="210" height="60" as="geometry" />
        </mxCell>
      </root>
    </mxGraphModel>
  </diagram>
</mxfile>
